<svg width="80" height="80" viewBox="0 0 80 80" fill="none" xmlns="http://www.w3.org/2000/svg">
<path d="M71.999 0.00585938L18.6698 0.00585938C15.841 0.00585938 13.1281 1.12958 11.1279 3.12981C9.12763 5.13005 8.00391 7.84295 8.00391 10.6717V69.3338H63.9996V8.67186L71.999 0.00585938Z" fill="#F2F4F5"/>
<path d="M77.3295 13.3359H63.9972V8.24959C63.9669 6.40301 64.5646 4.60089 65.6924 3.13839C66.8201 1.67589 68.4111 0.639704 70.2047 0.199542C71.3773 -0.067124 72.5948 -0.0665049 73.7671 0.201353C74.9393 0.469212 76.0363 0.997442 76.9767 1.7469C77.9171 2.49635 78.6767 3.44782 79.1994 4.53079C79.722 5.61375 79.9943 6.80045 79.996 8.00294V10.6694C79.996 11.3766 79.715 12.0548 79.215 12.5549C78.7149 13.0549 78.0367 13.3359 77.3295 13.3359Z" fill="#176BD9"/>
<path d="M74.0508 0.262762C72.848 -0.0537651 71.5878 -0.0847786 70.3709 0.172196C69.154 0.429171 68.0139 0.967021 67.0418 1.74283C66.0696 2.51864 65.2922 3.51093 64.7717 4.64052C64.2511 5.77012 64.0018 7.00575 64.0436 8.24882V13.3351H68.0433V8.24882C68.0172 6.43994 68.5933 4.67373 69.6808 3.22805C70.7683 1.78236 72.3056 0.739236 74.0508 0.262762Z" fill="#1057B4"/>
<path d="M55.9996 79.9964H10.6697C7.84099 79.9964 5.12809 78.8726 3.12786 76.8724C1.12763 74.8722 0.00390625 72.1593 0.00390625 69.3305C0.00390625 68.6233 0.284836 67.9451 0.784895 67.445C1.28495 66.945 1.96318 66.6641 2.67037 66.6641H45.3337C46.0409 66.6641 46.7192 66.945 47.2192 67.445C47.7193 67.9451 48.0002 68.6233 48.0002 69.3305V71.3304L55.9996 79.9964Z" fill="#176BD9"/>
<path d="M14.7163 75.9967C12.1199 75.9946 9.61338 75.0456 7.66673 73.3275C5.72009 71.6093 4.46702 69.2401 4.14247 66.6641H2.71724C2.01005 66.6641 1.33183 66.945 0.831769 67.445C0.331711 67.9451 0.0507813 68.6233 0.0507812 69.3305C0.0507813 72.1593 1.1745 74.8722 3.17473 76.8724C5.17497 78.8726 7.88787 79.9964 10.7166 79.9964H56.0465L52.3547 75.9967H14.7163Z" fill="#1057B4"/>
<path d="M63.9999 71.997C63.9982 73.1995 63.7259 74.3862 63.2033 75.4691C62.6806 76.5521 61.921 77.5036 60.9806 78.253C60.0402 79.0025 58.9433 79.5307 57.771 79.7986C56.5987 80.0664 55.3812 80.067 54.2086 79.8004C52.415 79.3602 50.824 78.324 49.6963 76.8615C48.5685 75.399 47.9708 73.5969 48.0011 71.7503V66.6641H63.9999V71.997Z" fill="#F2F4F5"/>
<path d="M21.3861 38.6674H14.7199C14.3664 38.6674 14.0272 38.5269 13.7772 38.2769C13.5272 38.0268 13.3867 37.6877 13.3867 37.3341V32.0012C13.3867 31.6476 13.5272 31.3085 13.7772 31.0585C14.0272 30.8084 14.3664 30.668 14.7199 30.668H21.3861C21.7397 30.668 22.0788 30.8084 22.3288 31.0585C22.5789 31.3085 22.7193 31.6476 22.7193 32.0012V37.3341C22.7193 37.6877 22.5789 38.0268 22.3288 38.2769C22.0788 38.5269 21.7397 38.6674 21.3861 38.6674ZM16.0532 36.0009H20.0529V33.3344H16.0532V36.0009Z" fill="#FFA34D"/>
<path d="M21.3861 50.6654H14.7199C14.3664 50.6654 14.0272 50.5249 13.7772 50.2749C13.5272 50.0249 13.3867 49.6858 13.3867 49.3322V43.9992C13.3867 43.6457 13.5272 43.3065 13.7772 43.0565C14.0272 42.8065 14.3664 42.666 14.7199 42.666H21.3861C21.7397 42.666 22.0788 42.8065 22.3288 43.0565C22.5789 43.3065 22.7193 43.6457 22.7193 43.9992V49.3322C22.7193 49.6858 22.5789 50.0249 22.3288 50.2749C22.0788 50.5249 21.7397 50.6654 21.3861 50.6654ZM16.0532 47.9989H20.0529V45.3325H16.0532V47.9989Z" fill="#FFA34D"/>
<path d="M21.3822 62.6654H14.716C14.3624 62.6654 14.0233 62.5249 13.7733 62.2749C13.5233 62.0249 13.3828 61.6858 13.3828 61.3322V55.9992C13.3828 55.6457 13.5233 55.3065 13.7733 55.0565C14.0233 54.8065 14.3624 54.666 14.716 54.666H21.3822C21.7358 54.666 22.0749 54.8065 22.3249 55.0565C22.575 55.3065 22.7154 55.6457 22.7154 55.9992V61.3322C22.7154 61.6858 22.575 62.0249 22.3249 62.2749C22.0749 62.5249 21.7358 62.6654 21.3822 62.6654ZM16.0493 59.9989H20.049V57.3325H16.0493V59.9989Z" fill="#FFA34D"/>
<path d="M40.0483 33.332H25.3828V35.9985H40.0483V33.332Z" fill="#176BD9"/>
<path d="M41.3816 45.334H25.3828V48.0004H41.3816V45.334Z" fill="#176BD9"/>
<path d="M40.0483 57.332H25.3828V59.9985H40.0483V57.332Z" fill="#176BD9"/>
<path d="M50.7172 33.334H48.0508V36.0004H50.7172V33.334Z" fill="#176BD9"/>
<path d="M45.3813 33.334H42.7148V36.0004H45.3813V33.334Z" fill="#176BD9"/>
<path d="M61.6424 32.0796L45.9143 47.8077L44.9317 52.722L44.2891 55.3311L46.8982 54.6885L51.8125 53.7046L64.0462 41.4709V29.6758L61.6424 32.0796Z" fill="#DFEAEF"/>
<path d="M69.4607 33.3463L63.5625 27.4481L65.529 25.4829C65.7871 25.2246 66.0935 25.0196 66.4308 24.8798C66.7681 24.7399 67.1297 24.668 67.4949 24.668C67.86 24.668 68.2216 24.7399 68.5589 24.8798C68.8962 25.0196 69.2027 25.2246 69.4607 25.4829L71.4272 27.4481C71.9484 27.9699 72.2412 28.6772 72.2412 29.4146C72.2412 30.1521 71.9484 30.8594 71.4272 31.3812L69.4607 33.3463Z" fill="#E9862A"/>
<path d="M70.4433 26.4655L69.4607 25.4829C69.2027 25.2246 68.8962 25.0196 68.5589 24.8798C68.2216 24.7399 67.86 24.668 67.4949 24.668C67.1297 24.668 66.7681 24.7399 66.4308 24.8798C66.0935 25.0196 65.7871 25.2246 65.529 25.4829L63.5625 27.4481L64.5464 28.4321L66.5116 26.4655C67.0331 25.9444 67.7402 25.6517 68.4775 25.6517C69.2147 25.6517 69.9218 25.9444 70.4433 26.4655Z" fill="#C06816"/>
<path d="M61.5988 29.4149L45.8711 45.1426L51.7689 51.0403L67.4965 35.3127L61.5988 29.4149Z" fill="#E9862A"/>
<path d="M63.5597 31.3817L47.832 47.1094L49.7976 49.075L65.5253 33.3473L63.5597 31.3817Z" fill="#FEBC00"/>
<path d="M61.5988 29.4149L45.8711 45.1426L47.8367 47.1082L63.5644 31.3805L61.5988 29.4149Z" fill="#E9862A"/>
<path d="M64.5465 26.4652L61.5977 29.4141L67.4954 35.3118L70.4443 32.3629L64.5465 26.4652Z" fill="#DFEAEF"/>
<path d="M65.5294 31.3805C65.271 31.1223 65.066 30.8157 64.9261 30.4783C64.7863 30.1409 64.7143 29.7792 64.7143 29.4139C64.7143 29.0487 64.7863 28.687 64.9261 28.3496C65.066 28.0122 65.271 27.7056 65.5294 27.4474L64.5468 26.4648L61.5977 29.4139L67.4945 35.3122L68.4785 34.3282L65.5294 31.3805Z" fill="#C3D6DD"/>
<path d="M46.848 52.0234L44.8828 50.0569L45.8654 45.1426L51.7636 51.0395L46.848 52.0234Z" fill="#F7D694"/>
<path d="M44.8861 50.0586L44.2422 52.6677L46.8513 52.0251L44.8861 50.0586Z" fill="#E9862A"/>
<g filter="url(#filter0_d_1780_2222)">
<path d="M49.6797 10.957H58.5325V13.667H55.3385V23.7351H52.8591V13.667H49.6797V10.957Z" fill="#176BD9"/>
</g>
<g filter="url(#filter1_d_1780_2222)">
<path d="M42.3277 24.0203C40.879 24.0203 39.7608 23.6255 38.9733 22.8359C38.1857 22.0462 37.7871 20.9455 37.7773 19.5337H40.1692C40.1789 20.3233 40.3637 20.8737 40.7234 21.1848C41.0929 21.4958 41.6568 21.6514 42.4152 21.6514C43.5917 21.6514 44.18 21.1608 44.18 20.1797C44.18 19.749 44.0487 19.432 43.7862 19.2286C43.5334 19.0132 43.0424 18.8218 42.3131 18.6543L41.4672 18.4569C39.1532 17.9783 37.9961 16.6442 37.9961 14.4547C37.9961 13.2942 38.3461 12.3729 39.0462 11.6909C39.756 11.009 40.7575 10.668 42.0506 10.668C43.4313 10.668 44.4862 11.0269 45.2155 11.7448C45.9447 12.4626 46.3336 13.4916 46.3822 14.8316H44.0487C44.0195 14.2095 43.8494 13.7548 43.5382 13.4677C43.2368 13.1805 42.7555 13.0369 42.0944 13.0369C41.0346 13.0369 40.5047 13.4677 40.5047 14.3291C40.5047 14.7598 40.6311 15.0889 40.8839 15.3162C41.1464 15.5435 41.6082 15.7349 42.2694 15.8905L43.1445 16.0879C44.3987 16.3631 45.3078 16.8117 45.8718 17.4339C46.4454 18.0441 46.7323 18.8936 46.7323 19.9823C46.7323 21.2865 46.3433 22.2855 45.5655 22.9794C44.7877 23.6734 43.7084 24.0203 42.3277 24.0203Z" fill="#176BD9"/>
</g>
<g filter="url(#filter2_d_1780_2222)">
<path d="M34.1918 10.957V13.667H28.7226V15.9821H33.6959V18.5306H28.7226V21.0252H34.1772V23.7351H26.2578V10.957H34.1918Z" fill="#176BD9"/>
</g>
<g filter="url(#filter3_d_1780_2222)">
<path d="M13.5703 10.957H22.4231V13.667H19.2291V23.7351H16.7497V13.667H13.5703V10.957Z" fill="#176BD9"/>
</g>
<defs>
<filter id="filter0_d_1780_2222" x="46.2541" y="10.957" width="12.2791" height="16.2029" filterUnits="userSpaceOnUse" color-interpolation-filters="sRGB">
<feFlood flood-opacity="0" result="BackgroundImageFix"/>
<feColorMatrix in="SourceAlpha" type="matrix" values="0 0 0 0 0 0 0 0 0 0 0 0 0 0 0 0 0 0 127 0" result="hardAlpha"/>
<feOffset dx="-3.42556" dy="3.42556"/>
<feComposite in2="hardAlpha" operator="out"/>
<feColorMatrix type="matrix" values="0 0 0 0 0.87451 0 0 0 0 0.917647 0 0 0 0 0.937255 0 0 0 1 0"/>
<feBlend mode="normal" in2="BackgroundImageFix" result="effect1_dropShadow_1780_2222"/>
<feBlend mode="normal" in="SourceGraphic" in2="effect1_dropShadow_1780_2222" result="shape"/>
</filter>
<filter id="filter1_d_1780_2222" x="34.3518" y="10.668" width="12.3806" height="16.7771" filterUnits="userSpaceOnUse" color-interpolation-filters="sRGB">
<feFlood flood-opacity="0" result="BackgroundImageFix"/>
<feColorMatrix in="SourceAlpha" type="matrix" values="0 0 0 0 0 0 0 0 0 0 0 0 0 0 0 0 0 0 127 0" result="hardAlpha"/>
<feOffset dx="-3.42556" dy="3.42556"/>
<feComposite in2="hardAlpha" operator="out"/>
<feColorMatrix type="matrix" values="0 0 0 0 0.87451 0 0 0 0 0.917647 0 0 0 0 0.937255 0 0 0 1 0"/>
<feBlend mode="normal" in2="BackgroundImageFix" result="effect1_dropShadow_1780_2222"/>
<feBlend mode="normal" in="SourceGraphic" in2="effect1_dropShadow_1780_2222" result="shape"/>
</filter>
<filter id="filter2_d_1780_2222" x="22.8323" y="10.957" width="11.3591" height="16.2029" filterUnits="userSpaceOnUse" color-interpolation-filters="sRGB">
<feFlood flood-opacity="0" result="BackgroundImageFix"/>
<feColorMatrix in="SourceAlpha" type="matrix" values="0 0 0 0 0 0 0 0 0 0 0 0 0 0 0 0 0 0 127 0" result="hardAlpha"/>
<feOffset dx="-3.42556" dy="3.42556"/>
<feComposite in2="hardAlpha" operator="out"/>
<feColorMatrix type="matrix" values="0 0 0 0 0.87451 0 0 0 0 0.917647 0 0 0 0 0.937255 0 0 0 1 0"/>
<feBlend mode="normal" in2="BackgroundImageFix" result="effect1_dropShadow_1780_2222"/>
<feBlend mode="normal" in="SourceGraphic" in2="effect1_dropShadow_1780_2222" result="shape"/>
</filter>
<filter id="filter3_d_1780_2222" x="10.1448" y="10.957" width="12.2791" height="16.2029" filterUnits="userSpaceOnUse" color-interpolation-filters="sRGB">
<feFlood flood-opacity="0" result="BackgroundImageFix"/>
<feColorMatrix in="SourceAlpha" type="matrix" values="0 0 0 0 0 0 0 0 0 0 0 0 0 0 0 0 0 0 127 0" result="hardAlpha"/>
<feOffset dx="-3.42556" dy="3.42556"/>
<feComposite in2="hardAlpha" operator="out"/>
<feColorMatrix type="matrix" values="0 0 0 0 0.87451 0 0 0 0 0.917647 0 0 0 0 0.937255 0 0 0 1 0"/>
<feBlend mode="normal" in2="BackgroundImageFix" result="effect1_dropShadow_1780_2222"/>
<feBlend mode="normal" in="SourceGraphic" in2="effect1_dropShadow_1780_2222" result="shape"/>
</filter>
</defs>
</svg>
