<svg width="86" height="80" viewBox="0 0 86 80" fill="none" xmlns="http://www.w3.org/2000/svg">
<path d="M81.5797 7.14258H78.7227V27.1422H81.5797V7.14258Z" fill="#0455BF"/>
<path d="M80.1512 7.14258H78.7227V27.1422H80.1512V7.14258Z" fill="#004787"/>
<path d="M84.4373 47.1422H75.866C75.4872 47.1422 75.1238 46.9917 74.8559 46.7238C74.588 46.4559 74.4375 46.0925 74.4375 45.7136V28.5711C74.4375 28.1922 74.588 27.8289 74.8559 27.561C75.1238 27.2931 75.4872 27.1426 75.866 27.1426H84.4373C84.8162 27.1426 85.1795 27.2931 85.4474 27.561C85.7153 27.8289 85.8658 28.1922 85.8658 28.5711V45.7136C85.8658 46.0925 85.7153 46.4559 85.4474 46.7238C85.1795 46.9917 84.8162 47.1422 84.4373 47.1422Z" fill="#FFA34D"/>
<path d="M85.8658 44.2851C83.5926 44.2851 81.4125 43.3821 79.8051 41.7746C78.1976 40.1672 77.2946 37.9871 77.2946 35.7138V27.1426H75.866C75.4872 27.1426 75.1238 27.2931 74.8559 27.561C74.588 27.8289 74.4375 28.1922 74.4375 28.5711V45.7136C74.4375 46.0925 74.588 46.4559 74.8559 46.7238C75.1238 46.9917 75.4872 47.1422 75.866 47.1422H84.4373C84.8162 47.1422 85.1795 46.9917 85.4474 46.7238C85.7153 46.4559 85.8658 46.0925 85.8658 45.7136V44.2851Z" fill="#E9862A"/>
<path d="M70.1514 34.2857H21.5809C21.202 34.2857 20.8387 34.1352 20.5708 33.8673C20.3028 33.5994 20.1523 33.236 20.1523 32.8572V7.14339C20.1523 6.76451 20.3028 6.40116 20.5708 6.13325C20.8387 5.86535 21.202 5.71484 21.5809 5.71484L70.1514 5.71484C70.5302 5.71484 70.8936 5.86535 71.1615 6.13325C71.4294 6.40116 71.5799 6.76451 71.5799 7.14339V32.8572C71.5799 33.236 71.4294 33.5994 71.1615 33.8673C70.8936 34.1352 70.5302 34.2857 70.1514 34.2857Z" fill="#176BD9"/>
<path d="M48.7232 31.4286C41.9035 31.4286 35.3631 28.7195 30.5408 23.8972C25.7186 19.075 23.0094 12.5346 23.0094 5.71484H21.5809C21.202 5.71484 20.8387 5.86535 20.5708 6.13325C20.3028 6.40116 20.1523 6.76451 20.1523 7.14339V32.8572C20.1523 33.236 20.3028 33.5994 20.5708 33.8673C20.8387 34.1352 21.202 34.2857 21.5809 34.2857H70.1514C70.5302 34.2857 70.8936 34.1352 71.1615 33.8673C71.4294 33.5994 71.5799 33.236 71.5799 32.8572V31.4286L48.7232 31.4286Z" fill="#1057B4"/>
<path d="M83.0058 8.57126L8.72151 8.57126C8.34264 8.57126 7.97928 8.42076 7.71138 8.15285C7.44348 7.88495 7.29297 7.52159 7.29297 7.14272V1.42854C7.29297 1.04967 7.44348 0.686315 7.71138 0.418411C7.97928 0.150507 8.34264 0 8.72151 0L83.0058 0C83.3847 0 83.748 0.150507 84.0159 0.418411C84.2838 0.686315 84.4343 1.04967 84.4343 1.42854V7.14272C84.4343 7.52159 84.2838 7.88495 84.0159 8.15285C83.748 8.42076 83.3847 8.57126 83.0058 8.57126Z" fill="#176BD9"/>
<path d="M11.5786 5.71417C11.1997 5.71417 10.8364 5.56367 10.5685 5.29576C10.3006 5.02786 10.1501 4.6645 10.1501 4.28563V0L8.72151 0C8.34264 0 7.97928 0.150507 7.71138 0.418411C7.44348 0.686315 7.29297 1.04967 7.29297 1.42854V7.14272C7.29297 7.52159 7.44348 7.88495 7.71138 8.15285C7.97928 8.42076 8.34264 8.57126 8.72151 8.57126L83.0058 8.57126C83.3847 8.57126 83.748 8.42076 84.0159 8.15285C84.2838 7.88495 84.4343 7.52159 84.4343 7.14272V5.71417L11.5786 5.71417Z" fill="#004787"/>
<path d="M80.1504 74.2856H14.4374C13.2396 74.2839 12.0555 74.0318 10.9609 73.5454C9.86638 73.059 8.88566 72.3491 8.08173 71.4612C7.27781 70.5734 6.66845 69.5272 6.29279 68.3899C5.91713 67.2525 5.78348 66.0492 5.90041 64.8572C6.17509 62.7095 7.22882 60.7375 8.86154 59.3154C10.4943 57.8934 12.5923 57.1203 14.7574 57.1431H80.1504C80.5293 57.1431 80.8926 57.2936 81.1605 57.5615C81.4284 57.8294 81.5789 58.1927 81.5789 58.5716V72.857C81.5789 73.2359 81.4284 73.5993 81.1605 73.8672C80.8926 74.1351 80.5293 74.2856 80.1504 74.2856Z" fill="#F4F5F5"/>
<path d="M58.5507 48.5709H5.86604C5.48717 48.5709 5.12382 48.4204 4.85591 48.1525C4.58801 47.8846 4.4375 47.5213 4.4375 47.1424V38.5711C4.4375 38.1922 4.58801 37.8289 4.85591 37.561C5.12382 37.2931 5.48717 37.1426 5.86604 37.1426H58.7222C59.5682 37.1423 60.4037 37.3299 61.1684 37.6918C61.9332 38.0536 62.608 38.5808 63.1442 39.2353C63.6804 39.8897 64.0645 40.655 64.269 41.4759C64.4734 42.2969 64.493 43.153 64.3263 43.9824C64.046 45.2988 63.3163 46.4766 62.2625 47.3138C61.2087 48.151 59.8964 48.5955 58.5507 48.5709Z" fill="#F4F5F5"/>
<path d="M81.5786 79.9986H14.8942C11.2149 80.0486 7.65305 78.7048 4.92373 76.237C2.19442 73.7692 0.499793 70.3602 0.180156 66.6946C0.0412026 64.7379 0.309705 62.7737 0.96869 60.926C1.62767 59.0784 2.66281 57.3876 4.00865 55.9605C5.34583 54.5336 6.96079 53.3955 8.7542 52.6159C10.5476 51.8364 12.4815 51.4321 14.437 51.4277H81.5786C82.7152 51.4277 83.8053 51.8793 84.609 52.683C85.4127 53.4867 85.8642 54.5767 85.8642 55.7134C85.8578 56.848 85.4043 57.9344 84.6019 58.7367C83.7996 59.5391 82.7132 59.9926 81.5786 59.999H14.7513C13.2952 59.9736 11.8803 60.4831 10.7746 61.4308C9.66889 62.3786 8.94906 63.6989 8.75142 65.1418C8.67006 65.9371 8.75782 66.7407 9.00894 67.4997C9.26006 68.2587 9.66887 68.9561 10.2085 69.546C10.744 70.1361 11.3966 70.6082 12.1246 70.9321C12.8526 71.256 13.6402 71.4247 14.437 71.4273H81.5786C82.7152 71.4273 83.8053 71.8789 84.609 72.6826C85.4127 73.4863 85.8642 74.5764 85.8642 75.713C85.8578 76.8476 85.4043 77.934 84.6019 78.7363C83.7996 79.5387 82.7132 79.9922 81.5786 79.9986Z" fill="#FEBC00"/>
<path d="M84.4343 77.1412H17.7499C14.0707 77.1912 10.5088 75.8474 7.7795 73.3796C5.05018 70.9118 3.35556 67.5028 3.03592 63.8372C2.79467 60.4363 3.78889 57.0625 5.83587 54.3359C3.92797 55.7523 2.40897 57.6279 1.41996 59.7885C0.430957 61.9491 0.00402886 64.3245 0.178833 66.6943C0.49847 70.3599 2.1931 73.7689 4.92241 76.2367C7.65173 78.7045 11.2136 80.0483 14.8928 79.9983H81.5772C82.4966 79.997 83.3909 79.6989 84.127 79.1483C84.8632 78.5977 85.4019 77.8241 85.6629 76.9426C85.2652 77.0683 84.8513 77.1351 84.4343 77.1412Z" fill="#EDAA03"/>
<path d="M58.377 54.2844H5.86376C4.72714 54.2844 3.63707 53.8329 2.83336 53.0292C2.02965 52.2255 1.57813 51.1354 1.57813 49.9988C1.5845 48.8642 2.03807 47.7778 2.8404 46.9754C3.64274 46.1731 4.7291 45.7195 5.86376 45.7132H58.5485C59.2278 45.7313 59.8929 45.5162 60.433 45.1037C60.9731 44.6912 61.3556 44.1062 61.517 43.4461C61.6048 43.0298 61.5986 42.5992 61.4988 42.1857C61.399 41.7722 61.2081 41.3862 60.94 41.0558C60.672 40.7255 60.3336 40.4592 59.9495 40.2764C59.5654 40.0935 59.1453 39.9988 58.7199 39.999H5.86376C4.72714 39.999 3.63707 39.5475 2.83336 38.7438C2.02965 37.9401 1.57813 36.85 1.57813 35.7134C1.5845 34.5787 2.03807 33.4923 2.8404 32.69C3.64274 31.8877 4.7291 31.4341 5.86376 31.4277L58.7199 31.4277C60.3465 31.4292 61.9541 31.7776 63.4354 32.4496C64.9167 33.1217 66.2377 34.1018 67.3102 35.3248C68.3827 36.5478 69.182 37.9854 69.6549 39.5418C70.1278 41.0981 70.2634 42.7374 70.0525 44.3503C69.6422 47.1406 68.2318 49.6865 66.0838 51.5141C63.9359 53.3416 61.1969 54.3262 58.377 54.2844Z" fill="#FFA34D"/>
<path d="M67.3057 35.3185C66.6976 34.632 66.0088 34.0214 65.2543 33.5C66.869 35.8345 67.5612 38.6847 67.1971 41.4998C66.7856 44.289 65.3746 46.8336 63.2268 48.66C61.079 50.4864 58.3407 51.4702 55.5216 51.4282H3.00837C2.59161 51.4223 2.17804 51.3544 1.78125 51.2268C2.04287 52.1079 2.58144 52.8812 3.31711 53.4321C4.05277 53.983 4.94638 54.2822 5.86546 54.2853H58.3787C61.1986 54.3271 63.9376 53.3425 66.0855 51.515C68.2335 49.6874 69.6439 47.1414 70.0542 44.3512C70.2638 42.7368 70.1271 41.0962 69.6532 39.5387C69.1792 37.9813 68.379 36.5426 67.3057 35.3185Z" fill="#E9862A"/>
<path d="M57.2921 41.4277H41.5781V44.2848H57.2921V41.4277Z" fill="#CFDBE1"/>
<path d="M81.5787 64.2852H53.0078V67.1422H81.5787V64.2852Z" fill="#CFDBE1"/>
<path d="M50.1501 64.2852H47.293V67.1422H50.1501V64.2852Z" fill="#CFDBE1"/>
<path d="M38.7204 41.4277H35.8633V44.2848H38.7204V41.4277Z" fill="#CFDBE1"/>
</svg>
