<svg width="74" height="80" viewBox="0 0 74 80" fill="none" xmlns="http://www.w3.org/2000/svg">
<path d="M68.2337 80H8.23372C7.8801 80 7.54096 79.8595 7.29092 79.6095C7.04087 79.3594 6.90039 79.0203 6.90039 78.6667V5.33333C6.90039 4.97971 7.04087 4.64057 7.29092 4.39052C7.54096 4.14048 7.8801 4 8.23372 4H68.2337C68.5873 4 68.9265 4.14048 69.1765 4.39052C69.4266 4.64057 69.5671 4.97971 69.5671 5.33333V78.6667C69.5671 79.0203 69.4266 79.3594 69.1765 79.6095C68.9265 79.8595 68.5873 80 68.2337 80Z" fill="#176BD9"/>
<path d="M69.5671 76C54.0077 76 39.0856 69.8191 28.0835 58.8169C17.0813 47.8148 10.9004 32.8927 10.9004 17.3333V4H8.23372C7.8801 4 7.54096 4.14048 7.29092 4.39052C7.04087 4.64057 6.90039 4.97971 6.90039 5.33333V78.6667C6.90039 79.0203 7.04087 79.3594 7.29092 79.6095C7.54096 79.8595 7.8801 80 8.23372 80H68.2337C68.5873 80 68.9265 79.8595 69.1765 79.6095C69.4266 79.3594 69.5671 79.0203 69.5671 78.6667V76Z" fill="#1057B4"/>
<path d="M60.2344 72H1.56771C1.21409 72 0.874948 71.8595 0.6249 71.6095C0.374851 71.3594 0.234375 71.0203 0.234375 70.6667V1.33333C0.234375 0.979711 0.374851 0.640573 0.6249 0.390524C0.874948 0.140476 1.21409 0 1.56771 0H52.2344C52.588 7.55165e-05 52.927 0.140601 53.177 0.390667L61.177 8.39067C61.4271 8.64066 61.5676 8.97974 61.5677 9.33333V70.6667C61.5677 71.0203 61.4272 71.3594 61.1772 71.6095C60.9271 71.8595 60.588 72 60.2344 72Z" fill="#F4F7F8"/>
<path d="M48.2562 18.667H13.5469V21.3337H48.2562V18.667Z" fill="#FEBC00"/>
<path d="M34.9015 29.333H13.5469V31.9997H34.9015V29.333Z" fill="#FEBC00"/>
<path d="M36.2349 40H13.5469V42.6667H36.2349V40Z" fill="#FEBC00"/>
<path d="M29.5682 50.667H13.5469V53.3337H29.5682V50.667Z" fill="#FEBC00"/>
<path d="M40.235 29.333H37.5684V31.9997H40.235V29.333Z" fill="#FEBC00"/>
<path d="M45.5671 29.333H42.9004V31.9997H45.5671V29.333Z" fill="#FEBC00"/>
<path d="M61.5671 14.6667H46.9004V0H52.7857L61.5671 8.78133V14.6667Z" fill="#D6E8F2"/>
<path d="M69.0164 24.667C68.6513 24.6667 68.2897 24.7385 67.9524 24.8783C67.6152 25.0181 67.3088 25.2231 67.051 25.4817L66.0684 26.4643L63.119 29.4137L61.5684 30.9643V42.7603L69.0164 35.3123L69.5684 34.7603V24.747C69.3875 24.7018 69.2026 24.675 69.0164 24.667Z" fill="#004787"/>
<path d="M46.4057 50.0562L45.7617 52.6656L48.3711 52.0229L53.2871 51.0389L61.5671 42.7589V30.9629L47.3884 45.1416L46.4057 50.0562Z" fill="#DFEAEF"/>
<path d="M70.9827 30.679L65.084 24.7804L67.0506 22.815C67.3087 22.5567 67.6152 22.3517 67.9525 22.2118C68.2899 22.072 68.6515 22 69.0166 22C69.3818 22 69.7434 22.072 70.0808 22.2118C70.4181 22.3517 70.7246 22.5567 70.9827 22.815L72.9493 24.7804C73.4706 25.3021 73.7634 26.0095 73.7634 26.747C73.7634 27.4846 73.4706 28.1919 72.9493 28.7137L70.9827 30.679Z" fill="#E9862A"/>
<path d="M71.9692 23.7977L70.9866 22.815C70.7285 22.5567 70.422 22.3517 70.0847 22.2118C69.7473 22.072 69.3857 22 69.0206 22C68.6554 22 68.2938 22.072 67.9564 22.2118C67.6191 22.3517 67.3126 22.5567 67.0546 22.815L65.0879 24.7804L66.0719 25.7644L68.0372 23.7977C68.5588 23.2765 69.2659 22.9838 70.0032 22.9838C70.7405 22.9838 71.4477 23.2765 71.9692 23.7977Z" fill="#C06816"/>
<path d="M63.1195 26.7457L47.3906 42.4746L53.2888 48.3728L69.0177 32.6439L63.1195 26.7457Z" fill="#E9862A"/>
<path d="M65.0863 28.7145L49.3574 44.4434L51.3232 46.4091L67.0521 30.6802L65.0863 28.7145Z" fill="#FEBC00"/>
<path d="M63.1195 26.7477L47.3906 42.4766L49.3564 44.4423L65.0853 28.7134L63.1195 26.7477Z" fill="#E9862A"/>
<path d="M66.0663 23.798L63.1172 26.7471L69.0154 32.6453L71.9645 29.6962L66.0663 23.798Z" fill="#DFEAEF"/>
<path d="M67.0492 28.7129C66.7908 28.4547 66.5858 28.1481 66.4459 27.8107C66.306 27.4732 66.234 27.1115 66.234 26.7462C66.234 26.3809 66.306 26.0192 66.4459 25.6818C66.5858 25.3443 66.7908 25.0377 67.0492 24.7795L66.0665 23.7969L63.1172 26.7462L69.0145 32.6449L69.9985 31.6609L67.0492 28.7129Z" fill="#C3D6DD"/>
<path d="M48.3735 49.3579L46.4082 47.3912L47.3909 42.4766L53.2895 48.3739L48.3735 49.3579Z" fill="#F7D694"/>
<path d="M46.4057 47.3896L45.7617 49.999L48.3711 49.3563L46.4057 47.3896Z" fill="#E9862A"/>
</svg>
