<svg width="32" height="32" viewBox="0 0 32 32" fill="none" xmlns="http://www.w3.org/2000/svg">
<path d="M14.044 14.043C13.5232 14.561 13.2293 15.2644 13.2266 15.9989C13.2266 16.7344 13.5188 17.4398 14.0389 17.9599C14.559 18.48 15.2644 18.7722 15.9999 18.7722C16.7344 18.7695 17.4378 18.4756 17.9558 17.9548" stroke="#39BAFF" stroke-width="2" stroke-linecap="round" stroke-linejoin="round"/>
<path d="M15.9997 7.67773C14.3541 7.67773 12.7456 8.16569 11.3773 9.07991C10.0091 9.99412 8.94273 11.2935 8.31301 12.8138C7.68329 14.3341 7.51853 16.007 7.83956 17.6209C8.16059 19.2348 8.95299 20.7173 10.1166 21.8809C11.2801 23.0444 12.7626 23.8368 14.3765 24.1579C15.9905 24.4789 17.6633 24.3141 19.1836 23.6844C20.7039 23.0547 22.0033 21.9883 22.9175 20.6201C23.8317 19.2519 24.3197 17.6433 24.3197 15.9977" stroke="#39BAFF" stroke-width="2" stroke-linecap="round" stroke-linejoin="round"/>
<path d="M15.9995 2.13281C13.2569 2.13281 10.5759 2.94608 8.29558 4.46977C6.01522 5.99345 4.23789 8.15913 3.18836 10.6929C2.13882 13.2267 1.86421 16.0149 2.39926 18.7047C2.93431 21.3946 4.25498 23.8654 6.19427 25.8047C8.13356 27.744 10.6044 29.0646 13.2942 29.5997C15.9841 30.1347 18.7722 29.8601 21.306 28.8106C23.8398 27.7611 26.0055 25.9837 27.5292 23.7034C29.0529 21.423 29.8661 18.742 29.8661 15.9995M21.1447 10.8557L17.3861 14.6128" stroke="#39BAFF" stroke-width="2" stroke-linecap="round" stroke-linejoin="round"/>
<path d="M29.047 7.01204L24.3178 7.67764L24.9834 2.94837C24.9883 2.89344 24.9766 2.8383 24.95 2.79C24.9234 2.7417 24.883 2.70242 24.834 2.6772C24.7849 2.65197 24.7295 2.64194 24.6747 2.64838C24.62 2.65483 24.5683 2.67745 24.5265 2.71337L21.3912 5.83264C21.0691 6.157 20.8323 6.55593 20.7016 6.99394C20.571 7.43195 20.5506 7.89546 20.6424 8.34324L21.1416 10.8538L23.6522 11.3516C24.0999 11.4433 24.5634 11.423 25.0015 11.2923C25.4395 11.1617 25.8384 10.9248 26.1628 10.6028L29.2806 7.46891C29.3166 7.42697 29.3393 7.37521 29.3457 7.32029C29.3521 7.26536 29.342 7.20977 29.3165 7.16066C29.2911 7.11155 29.2516 7.07115 29.2031 7.04467C29.1545 7.01819 29.0992 7.00682 29.0441 7.01204" stroke="#39BAFF" stroke-width="2" stroke-linecap="round" stroke-linejoin="round"/>
</svg>
