<svg width="32" height="32" viewBox="0 0 32 32" fill="none" xmlns="http://www.w3.org/2000/svg">
<path fill-rule="evenodd" clip-rule="evenodd" d="M29.9656 15.4534C29.9625 15.4252 29.9609 15.3987 29.9562 15.3705C29.9328 15.2002 29.9 15.0315 29.8593 14.8643C29.8515 14.8331 29.8437 14.8018 29.8343 14.7706V14.769C29.7906 14.6034 29.7375 14.4409 29.675 14.2799C29.6656 14.2565 29.6562 14.2346 29.6468 14.2127C29.5828 14.0518 29.5093 13.8955 29.4281 13.7424C29.4234 13.7346 29.4203 13.7268 29.4171 13.719V13.7205C29.3328 13.5658 29.239 13.4174 29.139 13.2736C29.1218 13.2486 29.1062 13.2252 29.089 13.2002C28.989 13.0643 28.8828 12.9315 28.7703 12.8065C28.7484 12.7815 28.7265 12.758 28.7031 12.7346L28.7046 12.733C28.5874 12.6065 28.464 12.4861 28.3343 12.3736C28.3171 12.3596 28.2999 12.3455 28.2828 12.3315V12.3299C28.1531 12.2205 28.0171 12.1174 27.8765 12.0221C27.8671 12.0174 27.8578 12.008 27.8484 12.0002C28.1859 10.6877 27.9546 9.29397 27.2093 8.16113C26.464 7.02989 25.2765 6.26425 23.9374 6.05645C23.6359 4.29865 22.3046 2.89709 20.564 2.50645C18.8234 2.11738 17.0202 2.81895 16 4.27989C14.9781 2.81897 13.175 2.11741 11.4344 2.50801C9.69532 2.89863 8.36252 4.30021 8.06252 6.05801C6.725 6.26738 5.53596 7.03145 4.7922 8.16425C4.04688 9.29549 3.81408 10.6877 4.15156 12.0002C4.14062 12.0064 4.13281 12.0158 4.12187 12.022C3.98124 12.1174 3.84687 12.2205 3.71563 12.3299C3.69844 12.3439 3.67969 12.358 3.6625 12.3736C3.53438 12.4861 3.41094 12.6049 3.29532 12.7314C3.27188 12.7564 3.25 12.7799 3.22656 12.8049C3.11406 12.9299 3.00938 13.0627 2.90938 13.1986C2.89219 13.2236 2.875 13.2486 2.85781 13.2736C2.75781 13.4158 2.66562 13.5642 2.58125 13.7174C2.57656 13.7252 2.57344 13.7346 2.56875 13.7424C2.4875 13.8939 2.41562 14.0502 2.35156 14.2096C2.34219 14.233 2.33125 14.2564 2.32187 14.2799C2.26094 14.4393 2.20781 14.6018 2.16406 14.7674C2.15625 14.7986 2.14687 14.8299 2.13906 14.8627H2.14062C2.09844 15.0299 2.06562 15.1986 2.04219 15.3689C2.03906 15.3955 2.03594 15.4236 2.03281 15.4518H2.03438C2.0125 15.633 2 15.8174 2 16.0002C2.00156 16.1877 2.0125 16.3736 2.03594 16.5596C2.04062 16.6033 2.05 16.6471 2.05625 16.6924C2.07812 16.8392 2.10469 16.983 2.13906 17.1252C2.14844 17.1658 2.15937 17.2033 2.16875 17.2408C2.21094 17.4002 2.26094 17.5549 2.32031 17.708L2.33906 17.7596C2.47969 18.1158 2.6625 18.4533 2.88438 18.7658L2.90001 18.7861V18.7877C3.00157 18.9299 3.11094 19.0658 3.22813 19.197C3.24688 19.2173 3.26563 19.2392 3.28594 19.2595C3.40313 19.3861 3.52657 19.5064 3.6547 19.6189C3.66563 19.6283 3.67657 19.6392 3.68751 19.6486H3.68907C3.83595 19.7752 3.99064 19.8924 4.15155 20.0002C3.81405 21.3126 4.0453 22.7064 4.79063 23.8377C5.53595 24.9705 6.72343 25.7346 8.06251 25.9439C8.36251 27.7017 9.69531 29.1033 11.436 29.4924C13.1766 29.883 14.9797 29.1814 16 27.7205C17.0218 29.1814 18.825 29.883 20.5656 29.4924C22.3046 29.1017 23.6374 27.7002 23.9374 25.9424C25.275 25.733 26.464 24.9689 27.2078 23.8377C27.9531 22.7049 28.1859 21.3127 27.8484 20.0002C28.0093 19.8924 28.164 19.7752 28.3125 19.6486C28.3234 19.6392 28.3343 19.6283 28.3453 19.6189C28.475 19.5048 28.5968 19.3845 28.714 19.258C28.7343 19.2377 28.7547 19.2174 28.7718 19.1955C28.889 19.0658 28.9984 18.9283 29.1015 18.7861L29.1172 18.7658H29.1156C29.3375 18.4533 29.5203 18.1158 29.6609 17.7596L29.6797 17.708V17.7096C29.739 17.5564 29.789 17.4002 29.8312 17.2424C29.8422 17.2017 29.8515 17.1642 29.8609 17.1252C29.8953 16.983 29.9219 16.8392 29.9437 16.6939C29.95 16.6502 29.9594 16.6064 29.964 16.5611C29.9875 16.3752 29.9984 16.1877 30 16.0002C29.9984 15.8174 29.9875 15.6346 29.9656 15.4534ZM15.2 21.8098C13.6984 20.5676 11.5578 20.4613 9.94198 21.5504C9.76229 21.6676 9.63729 21.8519 9.5951 22.0613C9.55135 22.2722 9.5951 22.491 9.71541 22.6675C9.83573 22.8457 10.0217 22.9691 10.2326 23.0082C10.4436 23.0472 10.6607 23.0004 10.8373 22.8769C11.9029 22.1597 13.3201 22.2597 14.2748 23.1207C15.2295 23.9816 15.4748 25.3816 14.8717 26.516C14.267 27.6503 12.9686 28.2269 11.7217 27.916C10.4748 27.6051 9.59982 26.4847 9.59982 25.2003V24.4003H8.79981C7.85449 24.405 6.95605 23.9894 6.34669 23.266C5.73889 22.5425 5.48261 21.5863 5.64981 20.6551C7.53573 21.1316 9.52325 20.4113 10.6654 18.8363C11.4029 19.091 12.1967 19.1426 12.9623 18.9816C13.3951 18.8926 13.6732 18.4691 13.5842 18.0363C13.4936 17.6035 13.0701 17.3254 12.6373 17.4144C11.6248 17.6238 10.5779 17.2566 9.91697 16.4597C9.25605 15.6629 9.08885 14.5675 9.48105 13.6097C9.64981 13.2004 9.45293 12.7332 9.04353 12.566C8.63574 12.3972 8.16697 12.5941 7.99977 13.0035C7.27321 14.7769 7.7779 16.816 9.24666 18.0455C8.35446 19.1267 6.86073 19.4955 5.56697 18.9533L5.47791 18.9127L5.44979 18.8986V18.9002C5.17479 18.7721 4.92167 18.6064 4.69355 18.408L4.68105 18.397V18.3955C4.34667 18.1002 4.07793 17.7377 3.89041 17.3314L3.88884 17.3205C3.82634 17.1845 3.77478 17.0455 3.73259 16.9033V16.897C3.69509 16.7689 3.66697 16.6376 3.64509 16.5064C3.64041 16.4767 3.63572 16.447 3.63103 16.4173L3.63259 16.4158C3.61228 16.2783 3.60135 16.1392 3.59978 16.0001C3.60447 14.7548 4.3279 13.6236 5.45758 13.0986L6.16226 12.772L5.85601 12.0579H5.85758C5.47945 11.1736 5.51851 10.1673 5.96539 9.31571C6.41071 8.46415 7.21695 7.85947 8.15759 7.66571C9.09979 7.47353 10.0779 7.71415 10.8232 8.32195C11.567 8.92819 11.9998 9.83915 11.9998 10.8001C11.9998 11.2423 12.3576 11.6001 12.7998 11.6001C13.242 11.6001 13.5998 11.2423 13.5998 10.8001C13.5967 8.49695 11.9576 6.51887 9.69511 6.08767C10.0592 4.73143 11.3685 3.85487 12.7592 4.03611C14.1514 4.2158 15.1935 5.39703 15.1998 6.80019L15.2 21.8098ZM28.3704 16.419C28.3657 16.4486 28.361 16.4783 28.3563 16.508C28.336 16.6393 28.3063 16.7705 28.2704 16.8986V16.9049C28.2266 17.0471 28.1751 17.1861 28.1126 17.3221L28.1079 17.3315V17.3299C27.9219 17.7361 27.6516 18.0987 27.3172 18.394L27.3047 18.4049V18.4065C27.0782 18.6049 26.8235 18.7705 26.5501 18.8987L26.5204 18.9127L26.4313 18.9534L26.4297 18.9518C25.1375 19.494 23.6438 19.1252 22.7501 18.044C24.2204 16.8159 24.7251 14.7768 24.0001 13.0032C23.8266 12.6048 23.3657 12.4188 22.9641 12.5829C22.561 12.7485 22.3641 13.2032 22.5204 13.6094C22.9126 14.5672 22.7454 15.6626 22.0845 16.4594C21.4235 17.2563 20.3782 17.6235 19.3641 17.4141C18.9313 17.3251 18.5079 17.6032 18.4188 18.036C18.3298 18.4688 18.6079 18.8922 19.0407 18.9813C19.8048 19.1423 20.5985 19.0907 21.3376 18.836C22.4782 20.411 24.4657 21.1313 26.3532 20.6548C26.5188 21.586 26.2626 22.5423 25.6547 23.2657C25.0454 23.9907 24.1454 24.4048 23.2001 24.4001H22.4001V25.2001C22.4001 26.4844 21.5251 27.6047 20.2782 27.9157C19.0313 28.2266 17.7329 27.6501 17.1282 26.5157C16.5251 25.3813 16.7704 23.9813 17.7251 23.1204C18.6797 22.2595 20.0969 22.1595 21.1626 22.8766C21.3392 23.0001 21.5563 23.0469 21.7673 23.0079C21.9782 22.9688 22.1641 22.8454 22.2845 22.6672C22.4048 22.4907 22.4485 22.2719 22.4048 22.061C22.3626 21.8516 22.2376 21.6673 22.0579 21.5501C20.4423 20.461 18.3017 20.5673 16.7999 21.8095V6.80027C16.8062 5.39715 17.8483 4.21591 19.2405 4.03619C20.6312 3.85494 21.9405 4.73151 22.3046 6.08775C20.0421 6.51899 18.4031 8.49711 18.3999 10.8001C18.3999 11.2423 18.7578 11.6001 19.1999 11.6001C19.6421 11.6001 19.9999 11.2423 19.9999 10.8001C19.9999 9.83923 20.4327 8.92827 21.1765 8.32203C21.9218 7.71423 22.8999 7.47359 23.8421 7.66579C24.7828 7.85954 25.589 8.46423 26.0343 9.31579C26.4812 10.1673 26.5203 11.1736 26.1422 12.058L25.8359 12.7721L26.5406 13.0986H26.5422C27.6718 13.6236 28.3953 14.7549 28.3999 16.0002C28.3984 16.1408 28.3891 16.2799 28.3704 16.419Z" fill="#39BAFF"/>
</svg>
