<svg width="32" height="32" viewBox="0 0 32 32" fill="none" xmlns="http://www.w3.org/2000/svg">
<path d="M8.844 13.666C9.91867 13.666 10.888 13.0713 11.552 12.226C12.587 10.9055 13.8863 9.81559 15.3667 9.02602C16.3307 8.51402 17.1667 7.75135 17.5707 6.73935C17.8544 6.03035 18.0001 5.27368 18 4.51002V3.66602C18 3.4008 18.1054 3.14645 18.2929 2.95891C18.4804 2.77137 18.7348 2.66602 19 2.66602C19.7957 2.66602 20.5587 2.98209 21.1213 3.5447C21.6839 4.1073 22 4.87037 22 5.66602C22 7.20202 21.6533 8.65668 21.036 9.95668C20.6813 10.7007 21.1787 11.666 22.0027 11.666M22.0027 11.666H26.1707C27.5387 11.666 28.764 12.5913 28.9093 13.9527C28.9693 14.5153 29 15.086 29 15.666C29.0055 19.3145 27.7587 22.8543 25.468 25.694C24.9507 26.3367 24.152 26.666 23.328 26.666H17.9733C17.3293 26.666 16.688 26.562 16.076 26.3594L11.924 24.9727C11.3121 24.7692 10.6715 24.6656 10.0267 24.666H7.872M22.0027 11.666H19M7.872 24.666C7.98267 24.9393 8.10267 25.206 8.232 25.4687C8.49467 26.002 8.128 26.666 7.53467 26.666H6.324C5.13867 26.666 4.04 25.9753 3.69467 24.842C3.23286 23.3263 2.99875 21.7505 3 20.166C3 18.0953 3.39334 16.118 4.108 14.302C4.516 13.27 5.556 12.666 6.66667 12.666H8.07067C8.7 12.666 9.064 13.4073 8.73734 13.946C7.59852 15.8206 6.9979 17.9726 7.00134 20.166C7.00134 21.758 7.31067 23.2767 7.87334 24.666H7.872Z" stroke="#39BAFF" stroke-width="2" stroke-linecap="round" stroke-linejoin="round"/>
</svg>
