<svg width="32" height="32" viewBox="0 0 32 32" fill="none" xmlns="http://www.w3.org/2000/svg">
<path d="M22.4827 5.983L24.732 3.73233C25.2009 3.26343 25.8369 3 26.5 3C27.1631 3 27.7991 3.26343 28.268 3.73233C28.7369 4.20123 29.0003 4.8372 29.0003 5.50033C29.0003 6.16346 28.7369 6.79943 28.268 7.26833L14.1093 21.427C13.4044 22.1315 12.5352 22.6493 11.58 22.9337L8 24.0003L9.06667 20.4203C9.35104 19.4652 9.86885 18.5959 10.5733 17.891L22.4827 5.983ZM22.4827 5.983L26 9.50033M24 18.667V25.0003C24 25.796 23.6839 26.559 23.1213 27.1216C22.5587 27.6843 21.7956 28.0003 21 28.0003H7C6.20435 28.0003 5.44129 27.6843 4.87868 27.1216C4.31607 26.559 4 25.796 4 25.0003V11.0003C4 10.2047 4.31607 9.44162 4.87868 8.87901C5.44129 8.3164 6.20435 8.00033 7 8.00033H13.3333" stroke="#39BAFF" stroke-width="2" stroke-linecap="round" stroke-linejoin="round"/>
</svg>
