<svg width="300" height="36" viewBox="0 0 300 36" fill="none" xmlns="http://www.w3.org/2000/svg">
<g clip-path="url(#clip0_2136_2536)">
<path d="M33.5206 17.7598C33.5206 21.9571 31.9659 25.7982 29.4148 28.744C29.4003 28.7536 29.3955 28.7632 29.3859 28.7729C26.3101 32.2915 21.7903 34.5201 16.7603 34.5201C7.51855 34.5201 0 27.0015 0 17.7598H5.7761C5.7761 23.815 10.705 28.744 16.7603 28.744C22.8156 28.744 27.7445 23.815 27.7445 17.7598H33.5206Z" fill="#4BCA7D"/>
<path d="M46.1938 28.7445V34.5206C43.195 34.5206 40.3214 33.7457 37.7799 32.2631C35.3106 33.6975 32.4418 34.5206 29.3853 34.5206V28.7734C29.3949 28.7638 29.3997 28.7541 29.4142 28.7445C35.455 28.7301 40.3695 23.806 40.3695 17.7603C40.3695 11.7147 35.4406 6.7761 29.3853 6.7761C23.33 6.7761 18.4011 11.7002 18.4011 17.7603H12.625C12.625 8.51855 20.1436 1 29.3853 1C38.6271 1 46.1456 8.51855 46.1456 17.7603C46.1456 21.6688 44.8027 25.274 42.55 28.1284C43.7052 28.5375 44.9326 28.7445 46.1938 28.7445Z" fill="#FE9230"/>
<path d="M6.35086 11.6197C8.06126 11.6197 9.44781 10.2331 9.44781 8.52273C9.44781 6.81233 8.06126 5.42578 6.35086 5.42578C4.64046 5.42578 3.25391 6.81233 3.25391 8.52273C3.25391 10.2331 4.64046 11.6197 6.35086 11.6197Z" fill="#4BCA7D"/>
</g>
<path d="M299.996 27.4369H287.598V9.24219H290.717V24.6297H299.996V27.4369Z" fill="#191919"/>
<path d="M270.715 27.4369H267.492L274.926 9.24219H278.045L285.505 27.4369H282.282L280.436 22.9402H272.561L270.715 27.4369ZM276.512 13.271L273.678 20.185H279.319L276.512 13.271Z" fill="#191919"/>
<path d="M252.986 27.4369H249.867V9.24219H253.246L262.266 22.9402V9.24219H265.385V27.4369H262.006L252.986 13.7389V27.4369Z" fill="#191919"/>
<path d="M238.06 27.826C232.679 27.826 228.988 24.0831 228.988 18.2868C228.988 12.7764 232.471 8.85156 238.06 8.85156C243.466 8.85156 247.183 12.5685 247.183 18.2868C247.183 23.8492 243.674 27.826 238.06 27.826ZM238.06 24.9929C241.699 24.9929 244.012 22.3936 244.012 18.2868C244.012 14.232 241.699 11.6587 238.06 11.6587C234.447 11.6587 232.159 14.232 232.159 18.2868C232.159 22.3936 234.447 24.9929 238.06 24.9929Z" fill="#191919"/>
<path d="M226.318 27.4369H223.199V9.24219H226.318V27.4369Z" fill="#191919"/>
<path d="M214.764 27.4369H211.645V12.0494H205.562V9.24219H220.82V12.0494H214.764V27.4369Z" fill="#191919"/>
<path d="M192.516 27.4369H189.293L196.727 9.24219H199.846L207.306 27.4369H204.083L202.237 22.9402H194.362L192.516 27.4369ZM198.312 13.271L195.479 20.185H201.12L198.312 13.271Z" fill="#191919"/>
<path d="M174.787 27.4369H171.668V9.24219H175.047L184.066 22.9402V9.24219H187.185V27.4369H183.806L174.787 13.7389V27.4369Z" fill="#191919"/>
<path d="M156.971 27.4369H153.852V9.24219H162.741C166.198 9.24219 168.589 11.3476 168.589 14.3887C168.589 16.624 167.004 18.4695 164.586 19.0933C165.782 19.3273 166.64 20.055 167.082 21.1727L169.421 27.4369H166.094L163.989 21.6926C163.729 20.9648 163.131 20.5749 162.299 20.5749H156.971V27.4369ZM156.971 12.0494V17.8197H162.585C164.508 17.8197 165.496 16.4421 165.496 14.8566C165.496 13.193 164.353 12.0494 162.585 12.0494H156.971Z" fill="#191919"/>
<path d="M151.193 27.4369H138.223V9.24219H150.959V12.0494H141.316V16.728H150.049V19.4572H141.316V24.6297H151.193V27.4369Z" fill="#191919"/>
<path d="M129.787 27.4369H126.668V12.0494H120.586V9.24219H135.844V12.0494H129.787V27.4369Z" fill="#191919"/>
<path d="M105.795 27.4369H102.676V9.24219H106.055L115.074 22.9402V9.24219H118.193V27.4369H114.814L105.795 13.7389V27.4369Z" fill="#191919"/>
<path d="M99.1738 27.4369H96.0547V9.24219H99.1738V27.4369Z" fill="#191919"/>
<path d="M86.2825 29.8535L83.9952 31.0231L81.8378 27.3842C80.9281 27.6701 79.9144 27.826 78.8487 27.826C73.4683 27.826 69.7773 24.0831 69.7773 18.2868C69.7773 12.7764 73.2603 8.85156 78.8487 8.85156C84.2551 8.85156 87.972 12.5685 87.972 18.2868C87.972 21.7698 86.5944 24.629 84.1772 26.2665L86.2825 29.8535ZM78.8487 24.9929C79.3686 24.9929 79.8624 24.9409 80.3043 24.8369L77.835 20.6521L80.1483 19.5085L82.6176 23.6932C84.0212 22.5496 84.801 20.6781 84.801 18.2868C84.801 14.232 82.4876 11.6587 78.8487 11.6587C75.2358 11.6587 72.9484 14.232 72.9484 18.2868C72.9484 22.3936 75.2358 24.9929 78.8487 24.9929Z" fill="#191919"/>
<path d="M67.1074 27.4369H63.9883V9.24219H67.1074V27.4369Z" fill="#191919"/>
<defs>
<clipPath id="clip0_2136_2536">
<rect width="46.1943" height="33.5206" fill="white" transform="translate(0 1)"/>
</clipPath>
</defs>
</svg>
