<svg width="42" height="31" viewBox="0 0 42 31" fill="none" xmlns="http://www.w3.org/2000/svg">
<g clip-path="url(#clip0_1810_5573)">
<path d="M29.8333 15.7871C29.8333 19.518 28.4496 22.9324 26.1791 25.5509C26.1663 25.5594 26.162 25.568 26.1534 25.5765C23.416 28.7042 19.3934 30.6852 14.9167 30.6852C6.69151 30.6852 0 24.002 0 15.7871H5.14073C5.14073 21.1696 9.52748 25.5509 14.9167 25.5509C20.3059 25.5509 24.6926 21.1696 24.6926 15.7871H29.8333Z" fill="#4BCA7D"/>
<path d="M41.1106 25.5505V30.6848C38.4417 30.6848 35.8842 29.9959 33.6222 28.6781C31.4246 29.9531 28.8713 30.6848 26.151 30.6848V25.5761C26.1596 25.5676 26.1639 25.559 26.1768 25.5505C31.5531 25.5376 35.927 21.1606 35.927 15.7867C35.927 10.4128 31.5402 6.02298 26.151 6.02298C20.7619 6.02298 16.3751 10.4 16.3751 15.7867H11.2344C11.2344 7.57183 17.9259 0.888672 26.151 0.888672C34.3762 0.888672 41.0677 7.57183 41.0677 15.7867C41.0677 19.2609 39.8725 22.4656 37.8676 25.0028C38.8958 25.3665 39.9882 25.5505 41.1106 25.5505Z" fill="#FE9230"/>
<path d="M5.64691 10.328C7.16917 10.328 8.4032 9.09547 8.4032 7.57511C8.4032 6.05476 7.16917 4.82227 5.64691 4.82227C4.12466 4.82227 2.89062 6.05476 2.89062 7.57511C2.89062 9.09547 4.12466 10.328 5.64691 10.328Z" fill="#4BCA7D"/>
</g>
<defs>
<clipPath id="clip0_1810_5573">
<rect width="41.113" height="29.7961" fill="white" transform="translate(0 0.888672)"/>
</clipPath>
</defs>
</svg>
