<svg width="98" height="80" viewBox="0 0 98 80" fill="none" xmlns="http://www.w3.org/2000/svg">
<path d="M92.3422 44.9453H5.66016V60.9975H92.3422V44.9453Z" fill="#FEBC00"/>
<path d="M8.8706 44.9453H5.66016V60.9975H92.3422V57.7871H21.7124C18.3065 57.7871 15.0402 56.4341 12.6319 54.0258C10.2236 51.6175 8.8706 48.3512 8.8706 44.9453Z" fill="#EDAA03"/>
<path d="M52.2831 60.1582C50.1253 60.035 48.0334 59.3692 46.2013 58.2223C44.3693 57.0755 42.8563 55.4848 41.8026 53.5977L24.9237 70.4798C24.7176 70.6857 24.5715 70.9438 24.5009 71.2265C24.4304 71.5091 24.4381 71.8057 24.5232 72.0843C24.6083 72.3629 24.7676 72.6131 24.9841 72.8081C25.2006 73.003 25.466 73.1354 25.752 73.191L30.3333 74.0819L31.2627 78.7098C31.3199 78.9946 31.4533 79.2587 31.6487 79.4737C31.8441 79.6887 32.0942 79.8466 32.3724 79.9307C32.6505 80.0147 32.9462 80.0217 33.228 79.9508C33.5098 79.88 33.767 79.734 33.9724 79.5284L52.7374 60.7618L52.2125 60.232L52.2831 60.1582Z" fill="#CC2600"/>
<path d="M71.7258 69.6783L55.192 53.1445C54.0707 55.0171 52.4906 56.573 50.601 57.6653C48.7113 58.7576 46.5744 59.3502 44.3921 59.3872L44.4402 59.4338L43.9121 59.9635L62.6772 78.727C62.8825 78.9321 63.1397 79.0777 63.4212 79.1483C63.7028 79.2189 63.9982 79.2118 64.2761 79.1278C64.5539 79.0438 64.8038 78.886 64.9991 78.6713C65.1944 78.4565 65.3278 78.1929 65.3852 77.9083L66.3146 73.2805L70.8975 72.396C71.1835 72.3404 71.4489 72.208 71.6654 72.013C71.8819 71.8181 72.0412 71.5679 72.1264 71.2893C72.2115 71.0106 72.2192 70.7141 72.1486 70.4315C72.078 70.1488 71.9319 69.8907 71.7258 69.6847V69.6783Z" fill="#CC2600"/>
<path d="M49.2014 64.1992C49.134 64.1992 49.0682 64.2088 48.9992 64.2088C48.752 64.2088 48.5176 64.1863 48.2672 64.1719L48.1934 64.2457L48.7215 64.7754L49.2496 64.2457L49.2014 64.1992Z" fill="#CC2600"/>
<path d="M21.7109 6.41992H76.2885V35.3139C76.2885 36.1654 75.9503 36.982 75.3482 37.5841C74.7461 38.1861 73.9295 38.5244 73.0781 38.5244H24.9214C24.0699 38.5244 23.2533 38.1861 22.6513 37.5841C22.0492 36.982 21.7109 36.1654 21.7109 35.3139V6.41992Z" fill="#176BD9"/>
<path d="M24.9214 6.41992H21.7109V35.3139C21.7109 36.1654 22.0492 36.982 22.6513 37.5841C23.2533 38.1861 24.0699 38.5244 24.9214 38.5244H73.0781C73.9295 38.5244 74.7461 38.1861 75.3482 37.5841C75.9503 36.982 76.2885 36.1654 76.2885 35.3139H53.8154C46.1522 35.3139 38.8029 32.2697 33.3842 26.8511C27.9656 21.4324 24.9214 14.0831 24.9214 6.41992Z" fill="#004787"/>
<path d="M85.9214 4.81641H82.7109V24.0791H85.9214V4.81641Z" fill="#0455BF"/>
<path d="M85.9197 4.81641H84.3145V24.0791H85.9197V4.81641Z" fill="#004787"/>
<path d="M87.9274 41.7351H80.7039C80.0394 41.7351 79.5 41.0175 79.5 40.1299V22.4724C79.5 21.5847 80.0394 20.8672 80.7039 20.8672H87.9274C88.592 20.8672 89.1313 21.5847 89.1313 22.4724V40.1299C89.1313 41.0175 88.592 41.7351 87.9274 41.7351Z" fill="#FFA34D"/>
<path d="M83.9144 38.5246C83.2498 38.5246 82.7104 37.8071 82.7104 36.9194V20.8672H80.7039C80.0394 20.8672 79.5 21.5847 79.5 22.4724V40.1299C79.5 41.0175 80.0394 41.7351 80.7039 41.7351H87.9274C88.592 41.7351 89.1313 41.0175 89.1313 40.1299V38.5246H83.9144Z" fill="#E9862A"/>
<path d="M5.65942 60.9975C2.91449 60.9975 0.84375 57.5479 0.84375 52.9714C0.84375 48.3949 2.91449 44.9453 5.65942 44.9453C8.40435 44.9453 10.4751 48.3949 10.4751 52.9714C10.4751 57.5479 8.40435 60.9975 5.65942 60.9975Z" fill="#F74E0C"/>
<path d="M4.0542 51.3662C3.96129 49.0937 4.61346 46.8531 5.91144 44.9854C5.81994 44.979 5.7461 44.9453 5.65942 44.9453C2.91449 44.9453 0.84375 48.3949 0.84375 52.9714C0.84375 57.5479 2.91449 60.9975 5.65942 60.9975C6.24608 60.9702 6.81846 60.8075 7.33172 60.522C7.84498 60.2366 8.28518 59.8362 8.61784 59.3522C6.00294 59.1435 4.0542 55.7982 4.0542 51.3662Z" fill="#CC2600"/>
<path d="M92.3411 60.9975C89.5961 60.9975 87.5254 57.5479 87.5254 52.9714C87.5254 48.3949 89.5961 44.9453 92.3411 44.9453C95.086 44.9453 97.1567 48.3949 97.1567 52.9714C97.1567 57.5479 95.086 60.9975 92.3411 60.9975Z" fill="#F74E0C"/>
<path d="M49 65.8144C46.4601 65.8144 43.9773 65.0613 41.8655 63.6502C39.7537 62.2391 38.1077 60.2335 37.1357 57.887C36.1638 55.5405 35.9095 52.9584 36.405 50.4673C36.9005 47.9763 38.1235 45.6881 39.9195 43.8921C41.7154 42.0962 44.0036 40.8731 46.4947 40.3776C48.9857 39.8821 51.5678 40.1364 53.9143 41.1084C56.2609 42.0804 58.2665 43.7263 59.6775 45.8381C61.0886 47.95 61.8418 50.4328 61.8418 52.9726C61.8379 56.3773 60.4838 59.6415 58.0763 62.0489C55.6688 64.4564 52.4047 65.8106 49 65.8144Z" fill="#F74E0C"/>
<path d="M49.001 59.3926C47.731 59.3926 46.4896 59.016 45.4337 58.3105C44.3778 57.6049 43.5548 56.6021 43.0688 55.4288C42.5829 54.2556 42.4557 52.9646 42.7035 51.719C42.9512 50.4735 43.5627 49.3294 44.4607 48.4314C45.3587 47.5334 46.5028 46.9219 47.7483 46.6742C48.9939 46.4264 50.2849 46.5536 51.4581 47.0395C52.6314 47.5255 53.6342 48.3485 54.3397 49.4044C55.0453 50.4603 55.4219 51.7017 55.4219 52.9717C55.4219 54.6746 54.7454 56.3078 53.5412 57.5119C52.3371 58.7161 50.7039 59.3926 49.001 59.3926Z" fill="#CC2600"/>
<path d="M87.5251 9.63134H10.4744C10.0486 9.63134 9.64034 9.46221 9.3393 9.16118C9.03826 8.86014 8.86914 8.45185 8.86914 8.02611V1.60522C8.86914 1.17949 9.03826 0.771197 9.3393 0.470159C9.64034 0.169122 10.0486 0 10.4744 0H87.5251C87.9508 0 88.3591 0.169122 88.6601 0.470159C88.9612 0.771197 89.1303 1.17949 89.1303 1.60522V8.02611C89.1303 8.45185 88.9612 8.86014 88.6601 9.16118C88.3591 9.46221 87.9508 9.63134 87.5251 9.63134Z" fill="#176BD9"/>
<path d="M89.1303 6.42089H12.0796V0H10.4744C10.0486 0 9.64034 0.169122 9.3393 0.470159C9.03826 0.771197 8.86914 1.17949 8.86914 1.60522V8.02611C8.86914 8.45185 9.03826 8.86014 9.3393 9.16118C9.64034 9.46221 10.0486 9.63134 10.4744 9.63134H87.5251C87.9508 9.63134 88.3591 9.46221 88.6601 9.16118C88.9612 8.86014 89.1303 8.45185 89.1303 8.02611V6.42089Z" fill="#004787"/>
</svg>
