<svg width="96" height="80" viewBox="0 0 96 80" fill="none" xmlns="http://www.w3.org/2000/svg">
<path d="M91.1994 67.2001H4.79922C4.37487 67.2001 3.96791 67.0316 3.66785 66.7315C3.36779 66.4314 3.19922 66.0245 3.19922 65.6001L3.19922 1.6C3.19922 1.17566 3.36779 0.768689 3.66785 0.46863C3.96791 0.168572 4.37487 0 4.79922 0L91.1994 0C91.6237 0 92.0307 0.168572 92.3308 0.46863C92.6308 0.768689 92.7994 1.17566 92.7994 1.6V65.6001C92.7994 66.0245 92.6308 66.4314 92.3308 66.7315C92.0307 67.0316 91.6237 67.2001 91.1994 67.2001Z" fill="#3D85E3"/>
<path d="M70.3994 64.0001C53.4255 64.0001 37.1468 57.2573 25.1444 45.2549C13.1421 33.2526 6.39922 16.9739 6.39922 0L4.79922 0C4.37487 0 3.96791 0.168572 3.66785 0.46863C3.36779 0.768689 3.19922 1.17566 3.19922 1.6L3.19922 65.6001C3.19922 66.0245 3.36779 66.4314 3.66785 66.7315C3.96791 67.0316 4.37487 67.2001 4.79922 67.2001H91.1994C91.6237 67.2001 92.0307 67.0316 92.3308 66.7315C92.6308 66.4314 92.7994 66.0245 92.7994 65.6001V64.0001H70.3994Z" fill="#2368C3"/>
<path d="M84.8017 60.8005H11.2016C10.7772 60.8005 10.3703 60.6319 10.0702 60.3319C9.77013 60.0318 9.60156 59.6248 9.60156 59.2005L9.60156 8.00039C9.60156 7.57605 9.77013 7.16908 10.0702 6.86902C10.3703 6.56896 10.7772 6.40039 11.2016 6.40039L84.8017 6.40039C85.2261 6.40039 85.633 6.56896 85.9331 6.86902C86.2331 7.16908 86.4017 7.57605 86.4017 8.00039V59.2005C86.4017 59.6248 86.2331 60.0318 85.9331 60.3319C85.633 60.6319 85.2261 60.8005 84.8017 60.8005Z" fill="#FDFEFF"/>
<path d="M64.0017 57.6005C50.4226 57.6005 37.3996 52.2062 27.7977 42.6043C18.1959 33.0024 12.8016 19.9795 12.8016 6.40039H11.2016C10.7772 6.40039 10.3703 6.56896 10.0702 6.86902C9.77013 7.16908 9.60156 7.57605 9.60156 8.00039L9.60156 59.2005C9.60156 59.6248 9.77013 60.0318 10.0702 60.3319C10.3703 60.6319 10.7772 60.8005 11.2016 60.8005H84.8017C85.2261 60.8005 85.633 60.6319 85.9331 60.3319C86.2331 60.0318 86.4017 59.6248 86.4017 59.2005V57.6005H64.0017Z" fill="#DFEAEF"/>
<path d="M72.0008 24H68.8008V46.4H72.0008V24Z" fill="#176BD9"/>
<path d="M70.4008 25.5996H68.8008V47.9997H70.4008V25.5996Z" fill="#004787"/>
<path d="M73.6016 57.5973H67.2016C66.7772 57.5973 66.3703 57.4287 66.0702 57.1287C65.7701 56.8286 65.6016 56.4216 65.6016 55.9973V44.7973C65.6016 44.3729 65.7701 43.966 66.0702 43.6659C66.3703 43.3658 66.7772 43.1973 67.2016 43.1973H73.6016C74.0259 43.1973 74.4329 43.3658 74.733 43.6659C75.033 43.966 75.2016 44.3729 75.2016 44.7973V55.9973C75.2016 56.4216 75.033 56.8286 74.733 57.1287C74.4329 57.4287 74.0259 57.5973 73.6016 57.5973Z" fill="#FFA34D"/>
<path d="M70.4016 54.3973C69.9772 54.3973 69.5703 54.2287 69.2702 53.9287C68.9701 53.6286 68.8016 53.2216 68.8016 52.7973V43.1973H67.2016C66.7772 43.1973 66.3703 43.3658 66.0702 43.6659C65.7701 43.966 65.6016 44.3729 65.6016 44.7973V55.9973C65.6016 56.4216 65.7701 56.8286 66.0702 57.1287C66.3703 57.4287 66.7772 57.5973 67.2016 57.5973H73.6016C74.0259 57.5973 74.4329 57.4287 74.733 57.1287C75.033 56.8286 75.2016 56.4216 75.2016 55.9973V54.3973H70.4016Z" fill="#E9862A"/>
<path d="M62.3985 27.1992H30.3984V41.5992C30.3986 41.816 30.4428 42.0304 30.5283 42.2295C30.6139 42.4287 30.739 42.6083 30.896 42.7576C35.5073 47.1488 41.6309 49.598 47.9985 49.598C54.366 49.598 60.4897 47.1488 65.1009 42.7576C65.258 42.6083 65.3831 42.4287 65.4686 42.2295C65.5542 42.0304 65.5983 41.816 65.5985 41.5992V27.1992H62.3985Z" fill="#0455BF"/>
<path d="M62.3985 27.1992H30.3984V41.5992C30.3986 41.816 30.4428 42.0304 30.5283 42.2295C30.6139 42.4287 30.739 42.6083 30.896 42.7576C35.5073 47.1488 41.6309 49.598 47.9985 49.598C54.366 49.598 60.4897 47.1488 65.1009 42.7576C65.258 42.6083 65.3831 42.4287 65.4686 42.2295C65.5542 42.0304 65.5983 41.816 65.5985 41.5992V27.1992H62.3985Z" fill="#176BD9"/>
<path d="M65.5985 25.5996H30.3984V30.0236L46.1761 36.4796C47.3419 36.9571 48.6487 36.9571 49.8145 36.4796L65.5985 30.0236V25.5996Z" fill="#004787"/>
<path d="M48.0037 35.2329C47.7961 35.233 47.5906 35.1922 47.3989 35.1129L23.8436 25.4809C23.5492 25.3608 23.2972 25.1558 23.1198 24.8919C22.9424 24.628 22.8477 24.3172 22.8477 23.9993C22.8477 23.6813 22.9424 23.3705 23.1198 23.1066C23.2972 22.8427 23.5492 22.6377 23.8436 22.5177L47.4069 12.8856C47.7942 12.7256 48.2291 12.7256 48.6165 12.8856L72.1797 22.5177C72.4742 22.6377 72.7262 22.8427 72.9035 23.1066C73.0809 23.3705 73.1757 23.6813 73.1757 23.9993C73.1757 24.3172 73.0809 24.628 72.9035 24.8919C72.7262 25.1558 72.4742 25.3608 72.1797 25.4809L48.6165 35.1129C48.4222 35.1932 48.2139 35.234 48.0037 35.2329Z" fill="#176BD9"/>
<path d="M81.6002 80H14.4C10.5822 79.9958 6.92196 78.4773 4.22235 75.7777C1.52274 73.0781 0.00423497 69.4178 0 65.6C0 65.1757 0.168571 64.7687 0.46863 64.4686C0.768689 64.1686 1.17566 64 1.6 64L94.4002 64C94.8245 64 95.2315 64.1686 95.5316 64.4686C95.8316 64.7687 96.0002 65.1757 96.0002 65.6C95.996 69.4178 94.4775 73.0781 91.7779 75.7777C89.0782 78.4773 85.418 79.9958 81.6002 80Z" fill="#145EBF"/>
<path d="M84.8002 76.8H17.6C14.0599 76.7952 10.6452 75.4879 8.00694 73.1273C5.36867 70.7667 3.69125 67.5179 3.29441 64H1.6C1.17566 64 0.768689 64.1686 0.46863 64.4686C0.168571 64.7687 0 65.1757 0 65.6C0.00423497 69.4178 1.52274 73.0781 4.22235 75.7777C6.92196 78.4773 10.5822 79.9958 14.4 80H81.6002C83.8736 79.9982 86.1141 79.4572 88.1378 78.4214C90.1616 77.3856 91.9108 75.8846 93.2418 74.0416C90.7917 75.8332 87.8354 76.7993 84.8002 76.8Z" fill="#1958A9"/>
<path d="M59.2016 68.8H36.8016L33.6016 64H62.4016L59.2016 68.8Z" fill="#FFA34D"/>
<path d="M36.2688 64H33.6016L36.8016 68.8H59.2016L60.2688 67.2H42.2416C41.0596 67.1989 39.8962 66.9062 38.8544 66.3481C37.8126 65.7899 36.9245 64.9834 36.2688 64Z" fill="#E9862A"/>
</svg>
